# xmcd
#
# Track frame offsets:
#	150
#	33106
#	68765
#	107181
#	118800
#	146228
#	173243
#	215047
#	249261
#	300838
#	311728
#
# Disc length: 4622 seconds
#
# Revision: 1
# Processed by: cddbd v1.5.2PL0 Copyright (c) Steve Scherf et al.
# Submitted via: audiograbber 1.83.01
#
DISCID=9a120c0b
DTITLE=Grateful Dead - 77-10-15 Moody Coliseum, Dallas TX
DYEAR=1900
DGENRE=
TTITLE0=Bertha
TTITLE1=Good Lovin
TTITLE2=They Love Each Other
TTITLE3=Mama Tried
TTITLE4=Big River
TTITLE5=Ramble On Rose
TTITLE6=Looks Like Rain
TTITLE7=Peggy-O
TTITLE8=Let It Grow
TTITLE9=Tuning
TTITLE10=Samson and Delilah
EXTD=
EXTT0=
EXTT1=
EXTT2=
EXTT3=
EXTT4=
EXTT5=
EXTT6=
EXTT7=
EXTT8=
EXTT9=
EXTT10=
PLAYORDER=
